<svg xmlns="http://www.w3.org/2000/svg" viewBox="0 0 507.96 542.3">
    <defs>
        <style>
	        .cls-1 {
	            fill: #4997d2;
	        }
	        .cls-2 {
	            fill: none;
	            stroke: #b1b1b1;
	            stroke-miterlimit: 10;
	            stroke-width: 0.5px;
	        }
	        .cls-3 {
	            fill: #e72733;
	        }
	        .cls-4 {
						animation-name: opacity;
						animation-iteration-count: infinite;
						opacity: 0;
	        }
	        @keyframes opacity {
	        	50% {
	        		opacity: 1;
	        	}
	        }

	        .cls-4:nth-child(1) {
						animation-duration: 3s;
	        }
	        .cls-4:nth-child(2) {
						animation-duration: 6s;
						animation-delay: .9s;
	        }
	        .cls-4:nth-child(3) {
						animation-duration: 5s;
	        }
	        .cls-4:nth-child(4) {
						animation-duration: 4s;
						animation-delay: 2s;
	        }
	        .cls-4:nth-child(5) {
						animation-duration: 7.51s;
						animation-delay: .3s;
	        }
	        .cls-4:nth-child(6) {
						animation-duration: 5.58s;
	        }
	        .cls-4:nth-child(7) {
						animation-duration: 3.52s;
	        }
	        .cls-4:nth-child(8) {
						animation-duration: 3.35s;
	        }
	        .cls-4:nth-child(9) {
						animation-duration: 5.49s;
	        }
	        .cls-4:nth-child(10) {
						animation-duration: 4.52s;
	        }
	        .cls-4:nth-child(11) {
						animation-duration: 5.64s;
	        }
	        .cls-4:nth-child(12) {
						animation-duration: 5.79s;
						animation-delay: 1s;
	        }
	        .cls-4:nth-child(13) {
						animation-duration: 4.97s;
						animation-delay: .2s;
	        }
	        .cls-4:nth-child(14) {
						animation-duration: 4.14s;
	        }
	        .cls-4:nth-child(15) {
						animation-duration: 7.52s;
	        }
	        .cls-4:nth-child(16) {
						animation-duration: 3.39s;
	        }
	        .cls-4:nth-child(17) {
						animation-duration: 3.24s;
						animation-delay: 1s;
	        }
	        .cls-4:nth-child(18) {
						animation-duration: 5.67s;
	        }
	        .cls-4:nth-child(19) {
						animation-duration: 7.73s;
	        }
	        .cls-4:nth-child(20) {
						animation-duration: 4.34s;
						animation-delay: 2.4s;
	        }
	        .cls-4:nth-child(21) {
						animation-duration: 3.65s;
	        }
	        .cls-4:nth-child(22) {
						animation-duration: 4.17s;
	        }
	        .cls-4:nth-child(23) {
						animation-duration: 5.91s;
	        }
	        .cls-4:nth-child(24) {
						animation-duration: 3.23s;
						animation-delay: 1.2s;
	        }
	        .cls-4:nth-child(25) {
						animation-duration: 3.64s;
	        }
	        .cls-4:nth-child(26) {
						animation-duration: 4.65s;
	        }
	        .cls-4:nth-child(27) {
						animation-duration: 4.02s;
						animation-delay: 1.6s;
	        }
	        .cls-4:nth-child(28) {
						animation-duration: 3.08s;
	        }
	        .cls-4:nth-child(29) {
						animation-duration: 7.04s;
	        }
	        .cls-4:nth-child(30) {
						animation-duration: 5.11s;
	        }
	        .cls-4:nth-child(31) {
						animation-duration: 3.99s;
	        }
	        .cls-4:nth-child(32) {
						animation-duration: 3.15s;
						animation-delay: 1.1s;
	        }
	        .cls-4:nth-child(33) {
						animation-duration: 6.91s;
	        }
	        .cls-4:nth-child(34) {
						animation-duration: 5.23s;
						animation-delay: .6s;
	        }
	        .cls-4:nth-child(35) {
						animation-duration: 5.64s;
	        }
        </style>
    </defs>
    <title>Ресурс 1</title>
    <g id="Слой_2" data-name="Слой 2">
        <g id="Layer_1" data-name="Layer 1">
            <rect class="cls-1 cls-4" x="86.24" y="88.71" width="8.45" height="8.45" transform="translate(-39.22 91.19) rotate(-45)" />
            <rect class="cls-3" x="113.29" y="43.42" width="8.45" height="8.45" transform="translate(0.73 97.05) rotate(-45)" />
            <rect class="cls-1 cls-4" x="153.09" y="49.77" width="3.5" height="3.5" transform="translate(8.92 124.58) rotate(-45)" />
            <rect class="cls-3 cls-4" x="185.72" y="29.21" width="5.53" height="5.53" transform="translate(32.59 142.65) rotate(-45)" />
            <rect class="cls-1 cls-4" x="219.33" y="20.91" width="4.02" height="4.02" transform="translate(48.62 163.22) rotate(-45)" />
            <rect class="cls-3 cls-4" x="268.59" y="1.15" width="5.53" height="5.53" transform="translate(76.71 193.02) rotate(-45)" />
            <rect class="cls-3 cls-4" x="305.55" y="36.15" width="8.45" height="8.45" transform="translate(62.18 230.87) rotate(-45)" />
            <rect class="cls-1 cls-4" x="353.07" y="60" width="4.02" height="4.02" transform="translate(60.15 269.24) rotate(-45)" />
            <rect class="cls-1 cls-4" x="360.37" y="36.08" width="5.53" height="5.53" transform="translate(78.89 268.15) rotate(-45)" />
            <rect class="cls-3 cls-4" x="408.54" y="96.2" width="3.5" height="3.5" transform="translate(50.91 318.81) rotate(-45)" />
            <rect class="cls-1 cls-4" x="452.12" y="86.05" width="8.45" height="8.45" transform="translate(69.83 349.13) rotate(-45)" />
            <rect class="cls-1 cls-4" x="453.08" y="133.19" width="5.53" height="5.53" transform="translate(37.38 362.16) rotate(-45)" />
            <rect class="cls-3" x="477.74" y="197.73" width="5.53" height="5.53" transform="translate(-1.04 398.49) rotate(-45)" />
            <rect class="cls-3 cls-4" x="494.15" y="232.38" width="3.5" height="3.5" transform="translate(-20.31 419.23) rotate(-45)" />
            <rect class="cls-1 cls-4" x="489.96" y="322.89" width="8.45" height="8.45" transform="translate(-86.56 445.25) rotate(-45)" />
            <rect class="cls-1 cls-4" x="479.83" y="346.48" width="3.5" height="3.5" transform="translate(-105.18 442.52) rotate(-45)" />
            <rect class="cls-3 cls-4" x="497.77" y="364.42" width="8.45" height="8.45" transform="translate(-113.64 462.93) rotate(-45)" />
            <rect class="cls-1 cls-4" x="430.91" y="441.05" width="8.45" height="8.45" transform="translate(-187.41 438.1) rotate(-45)" />
            <rect class="cls-3 cls-4" x="420.36" y="484.23" width="3.5" height="3.5" transform="translate(-220 440.82) rotate(-45)" />
            <rect class="cls-1 cls-4" x="375.98" y="505.75" width="3.5" height="3.5" transform="translate(-248.22 415.74) rotate(-45)" />
            <rect class="cls-3 cls-4" x="345.49" y="497.95" width="5.53" height="5.53" transform="translate(-252.06 392.91) rotate(-45)" />
            <rect class="cls-1 cls-4" x="324.53" y="531.7" width="5.53" height="5.53" transform="translate(-282.06 387.97) rotate(-45)" />
            <rect class="cls-1 cls-4" x="278.13" y="525.8" width="5.53" height="5.53" transform="translate(-291.48 353.44) rotate(-45)" />
            <rect class="cls-1" x="223.5" y="519.98" width="3.5" height="3.5" transform="translate(-302.95 312.08) rotate(-45)" />
            <rect class="cls-3 cls-4" x="194" y="532.1" width="8.45" height="8.45" transform="translate(-321.18 297.25) rotate(-45)" />
            <rect class="cls-3 cls-4" x="151.51" y="503.31" width="8.45" height="8.45" transform="translate(-313.27 258.78) rotate(-45)" />
            <rect class="cls-1 cls-4" x="115.19" y="505.75" width="3.5" height="3.5" transform="translate(-324.6 231.33) rotate(-45)" />
            <rect class="cls-1 cls-4" x="81.37" y="458.14" width="8.45" height="8.45" transform="translate(-301.87 195.95) rotate(-45)" />
            <rect class="cls-3 cls-4" x="41.15" y="423.22" width="4.02" height="4.02" transform="translate(-288.04 155.06) rotate(-45)" />
            <rect class="cls-1 cls-4" x="3.09" y="383.27" width="3.5" height="3.5" transform="translate(-270.83 116.19) rotate(-45)" />
            <rect class="cls-3 cls-4" x="19.55" y="357.66" width="4.02" height="4.02" transform="translate(-248.01 120.59) rotate(-45)" />
            <rect class="cls-1 cls-4" x="1.75" y="313.99" width="8.45" height="8.45" transform="translate(-223.26 97.43) rotate(-45)" />
            <rect class="cls-1 cls-4" x="5.63" y="237.97" width="8.45" height="8.45" transform="translate(-168.37 77.91) rotate(-45)" />
            <rect class="cls-1 cls-4" x="9.57" y="174.89" width="4.02" height="4.02" transform="translate(-121.7 60) rotate(-45)" />
            <rect class="cls-3 cls-4" x="47.49" y="136.85" width="8.45" height="8.45" transform="translate(-84.61 77.89) rotate(-45)" />
            <polyline class="cls-2" points="252.52 54.1 163.89 141.77 24.54 282.09" />
            <polyline class="cls-2" points="480.5 282.09 340.49 142.07 315.34 118.69 252.52 54.1" />
            <line class="cls-2" x1="252.52" y1="510.07" x2="480.5" y2="282.09" />
            <line class="cls-2" x1="24.54" y1="282.09" x2="252.52" y2="510.07" />
            <polyline class="cls-2" points="45.69 376.89 46.21 379.23 131.14 475.1 252.52 510.07 373.81 475.16 458.83 379.23 480.5 282.09 458.82 184.93 373.81 89.03 252.52 54.1 130.76 89.32 45.55 186.39 24.54 282.09 45.69 376.89" />
            <polyline class="cls-2" points="329.77 76.34 187.95 179.86 128.51 340.48 226.72 241.24 45.55 186.39" />
            <line class="cls-2" x1="252.18" y1="202.85" x2="329.77" y2="76.35" />
            <polyline class="cls-2" points="131.14 475.1 97.52 355.07 45.55 186.39" />
            <polyline class="cls-2" points="458.82 184.93 252.52 282.09 131.14 475.1" />
            <line class="cls-2" x1="445.53" y1="247.11" x2="458.82" y2="184.93" />
            <line class="cls-2" x1="414.94" y1="135.42" x2="445.53" y2="247.11" />
            <line class="cls-2" x1="365.67" y1="167.26" x2="414.94" y2="135.42" />
            <line class="cls-2" x1="252.18" y1="202.85" x2="252.52" y2="54.1" />
            <line class="cls-2" x1="45.55" y1="186.39" x2="187.66" y2="72.86" />
            <line class="cls-2" x1="85.05" y1="423.07" x2="75.29" y2="332.83" />
            <polyline class="cls-2" points="440.72 399.66 320.08 490.62 206.44 496.79 85.05 423.07" />
            <polyline class="cls-2" points="92.56 132.83 163.89 141.77 340.49 142.07 344.73 267.15 226.72 241.24 259.23 397.09 410.75 305.04 440.72 399.66" />
            <polyline class="cls-2" points="171.43 224.5 186.15 282.24 85.6 316.38 92.56 132.83" />
            <line class="cls-2" x1="373.81" y1="475.16" x2="389.41" y2="191" />
            <polyline class="cls-2" points="252.52 282.09 252.19 202.85 373.81 224.96 291.58 344.26 226.19 451.04 373.81 475.16" />
            <polyline class="cls-2" points="187.66 72.86 207.42 141.95 213.31 161.36 252.52 282.09" />
            <polyline class="cls-2" points="46.21 379.23 85.6 316.38 134.48 213.31 163.89 141.77 187.66 72.86" />
            <polyline class="cls-2" points="373.81 89.03 252.52 282.09 46.21 379.23" />
            <polyline class="cls-2" points="480.5 282.09 373.81 224.96 373.81 89.03" />
            <polyline class="cls-2" points="273.34 315.23 373.81 224.96 340.49 422.12 193.02 376.7 480.5 282.09" />
            <polyline class="cls-2" points="273.34 315.23 193.02 376.7 226.72 241.24 252.19 202.85 365.67 167.26 342.39 198.22 273.34 315.23" />
            <polyline class="cls-2" points="131.14 475.1 128.51 340.48 273.34 315.23" />
            <polyline class="cls-2" points="445.52 247.11 458.83 379.23 395.47 376.83" />
            <line class="cls-2" x1="414.94" y1="135.42" x2="373.81" y2="224.96" />
            <polyline class="cls-2" points="45.55 186.39 252.52 176.9 340.49 142.07 414.94 135.42" />
            <polyline class="cls-2" points="252.52 510.07 259.23 397.09 148.88 386.64 85.05 423.07" />
            <polyline class="cls-2" points="252.52 510.07 291.71 377.36 395.47 376.83 271.94 251.17" />
            <polyline class="cls-2" points="252.52 510.07 341.72 377.1 291.58 344.26 246.45 335.81" />
            <polyline class="cls-2" points="24.54 282.09 193.02 376.7 252.52 510.07" />
            <line class="cls-2" x1="46.21" y1="379.23" x2="45.55" y2="186.39" />
            <polyline class="cls-2" points="320.08 490.62 226.19 451.04 206.44 496.79" />
            <polyline class="cls-2" points="458.82 184.93 344.73 267.15 410.75 305.04 320.08 490.62" />
            <line class="cls-2" x1="340.49" y1="142.07" x2="458.82" y2="184.93" />
            <polyline class="cls-2" points="45.55 186.39 163.89 141.77 252.52 176.9 289.51 141.98" />
            <polyline class="cls-2" points="271.94 251.17 342.39 198.22 269.96 141.95 252.52 54.1" />
            <line class="cls-2" x1="373.81" y1="475.16" x2="480.5" y2="282.09" />
            <polyline class="cls-2" points="130.76 89.32 252.52 282.09 373.81 475.16" />
            <line class="cls-2" x1="207.42" y1="141.95" x2="130.76" y2="89.32" />
            <polyline class="cls-2" points="130.76 89.32 120.86 157.99 90.61 184.33" />
            <polyline class="cls-2" points="425.16 172.73 391.78 137.49 329.77 76.34 131.77 89.03" />
            <polyline class="cls-2" points="373.81 475.16 395.47 376.83 397.77 364.82 410.75 305.04 386.9 236.76" />
            <polyline class="cls-2" points="131.14 475.1 251 357.62 112.79 370.34" />
            <polyline class="cls-2" points="131.14 475.1 148.88 386.64 186.15 282.24" />
            <polyline class="cls-2" points="373.81 475.16 259.23 397.09 185.41 442.96 131.14 475.1" />
            <polyline class="cls-2" points="206.44 496.79 286.23 476.36 373.81 475.16" />
            <polyline class="cls-2" points="85.05 423.07 200.1 457.65 206.44 496.79" />
            <line class="cls-2" x1="24.54" y1="282.09" x2="85.05" y2="423.07" />
            <polyline class="cls-2" points="92.56 132.83 147.54 181.72 24.54 282.09" />
            <polyline class="cls-2" points="373.81 89.03 315.34 118.69 187.66 72.86 92.56 132.83" />
            <line class="cls-2" x1="187.95" y1="179.86" x2="85.6" y2="316.38" />
            <polyline class="cls-2" points="373.81 89.03 293.88 160.53 252.52 246.91" />
            <polyline class="cls-2" points="480.5 282.09 431.96 197.58 401.7 164.24 373.81 89.03" />
            <polyline class="cls-2" points="45.55 186.39 128.51 340.48 246.45 335.81 340.49 422.12 344.73 267.15 438.14 259.41 440.72 399.66" />
            <polyline class="cls-2" points="440.72 399.66 273.34 315.23 186.15 282.24 45.55 186.39" />
            <polyline class="cls-2" points="320.08 490.62 259.23 397.09 164.5 422.05 128.51 340.48 85.05 423.07" />
            <line class="cls-2" x1="157.33" y1="262.6" x2="26.55" y2="281.79" />
            <line class="cls-2" x1="26.55" y1="281.79" x2="24.54" y2="282.09" />
            <polyline class="cls-2" points="480.1 283.27 440.72 399.66 340.49 422.12" />
            <line class="cls-2" x1="273.34" y1="315.23" x2="479.44" y2="282.26" />
            <polyline class="cls-2" points="458.82 184.93 396.03 262.9 273.34 315.23" />
            <polyline class="cls-2" points="389.41 191 458.82 184.93 320.69 181.36 285.66 88.18 187.66 72.86" />
            <polyline class="cls-2" points="46.21 379.23 164.5 422.05 206.44 496.79" />
            <line class="cls-2" x1="72.85" y1="275" x2="46.21" y2="379.23" />
            <polyline class="cls-2" points="75.29 332.83 65.2 304.92 45.88 260.6 90.61 184.33 130.76 89.32" />
            <polyline class="cls-2" points="46.21 379.23 112.79 370.34 202.76 337.54 186.15 282.24 252.52 54.1 187.95 179.86 24.54 282.09" />
            <polyline class="cls-2" points="24.54 282.09 98.21 398.05 193.02 376.7 157.33 262.6 110.91 307.78 46.21 379.23" />
            <polyline class="cls-2" points="130.94 90.27 147.54 181.72 171.43 224.5 72.85 275" />
            <polyline class="cls-2" points="292.27 65.55 252.19 132.98 130.76 89.32" />
            <polyline class="cls-2" points="176.33 105.7 252.52 54.1 349.58 101.32" />
            <line class="cls-2" x1="252.18" y1="202.85" x2="187.95" y2="179.86" />
            <polyline class="cls-2" points="221.34 84.95 252.19 132.98 230.85 215.37" />
            <line class="cls-2" x1="269.96" y1="141.95" x2="252.18" y2="132.98" />
            <line class="cls-2" x1="291.71" y1="377.36" x2="250.99" y2="357.62" />
            <line class="cls-2" x1="458.82" y1="184.93" x2="271.94" y2="251.17" />
            <line class="cls-2" x1="342.39" y1="198.22" x2="373.81" y2="89.03" />
            <rect class="cls-3" x="387.59" y="361.92" width="18.4" height="18.4" transform="translate(-146.2 389.27) rotate(-45)" />
            <rect class="cls-3" x="364.61" y="215.76" width="18.4" height="18.4" transform="translate(-49.59 330.21) rotate(-45)" />
            <rect class="cls-3" x="397.9" y="200.45" width="14.02" height="14.02" transform="translate(-28.1 347.08) rotate(-45)" />
            <rect class="cls-3" x="437.3" y="293.75" width="3.5" height="3.5" transform="translate(-80.35 397) rotate(-45)" />
            <rect class="cls-3" x="438.06" y="354.12" width="3.5" height="3.5" transform="translate(-122.82 415.22) rotate(-45)" />
            <rect class="cls-3" x="379.79" y="338.73" width="3.5" height="3.5" transform="translate(-129 369.51) rotate(-45)" />
            <rect class="cls-3" x="350.57" y="353.42" width="3.5" height="3.5" transform="translate(-147.95 353.15) rotate(-45)" />
            <rect class="cls-3" x="310.38" y="375.61" width="3.5" height="3.5" transform="translate(-175.41 331.24) rotate(-45)" />
            <rect class="cls-3" x="282.01" y="402.59" width="3.5" height="3.5" transform="translate(-202.79 319.08) rotate(-45)" />
            <rect class="cls-3" x="274.06" y="368.21" width="3.5" height="3.5" transform="translate(-180.82 303.39) rotate(-45)" />
            <rect class="cls-3" x="313.51" y="334.78" width="3.5" height="3.5" transform="translate(-145.63 321.49) rotate(-45)" />
            <rect class="cls-3" x="464.34" y="306.25" width="3.5" height="3.5" transform="translate(-81.27 419.79) rotate(-45)" />
            <rect class="cls-3" x="210.33" y="299.69" width="3.5" height="3.5" transform="translate(-151.04 238.25) rotate(-45)" />
            <rect class="cls-3" x="210.55" y="359.36" width="3.5" height="3.5" transform="translate(-193.16 255.89) rotate(-45)" />
            <rect class="cls-3" x="224.44" y="321.79" width="3.5" height="3.5" transform="translate(-162.53 254.7) rotate(-45)" />
            <rect class="cls-3" x="43.8" y="238.86" width="3.5" height="3.5" transform="translate(-156.8 102.68) rotate(-45)" />
            <rect class="cls-3" x="43.94" y="292.44" width="3.5" height="3.5" transform="translate(-194.64 118.47) rotate(-45)" />
            <rect class="cls-3" x="80.1" y="390.87" width="3.5" height="3.5" transform="translate(-253.65 172.87) rotate(-45)" />
            <rect class="cls-3" x="81.38" y="372.67" width="3.5" height="3.5" transform="translate(-240.41 168.44) rotate(-45)" />
            <rect class="cls-3" x="116.85" y="427.62" width="3.5" height="3.5" transform="translate(-268.87 209.62) rotate(-45)" />
            <rect class="cls-3" x="100.41" y="431.61" width="3.5" height="3.5" transform="translate(-276.51 199.17) rotate(-45)" />
            <rect class="cls-3" x="73.54" y="238.86" width="3.5" height="3.5" transform="translate(-148.09 123.71) rotate(-45)" />
            <rect class="cls-3" x="64.43" y="224.3" width="3.5" height="3.5" transform="translate(-140.45 113) rotate(-45)" />
            <rect class="cls-3" x="338.11" y="473.82" width="3.5" height="3.5" transform="translate(-236.73 379.6) rotate(-45)" />
            <rect class="cls-3" x="378.55" y="443.69" width="3.5" height="3.5" transform="translate(-203.58 399.37) rotate(-45)" />
            <rect class="cls-3" x="421.7" y="383.19" width="3.5" height="3.5" transform="translate(-148.17 412.17) rotate(-45)" />
            <rect class="cls-3" x="432.26" y="376.49" width="3.5" height="3.5" transform="translate(-140.34 417.67) rotate(-45)" />
            <rect class="cls-3" x="454.6" y="352.21" width="3.5" height="3.5" transform="translate(-116.63 426.36) rotate(-45)" />
            <rect class="cls-3" x="148.13" y="253.4" width="18.4" height="18.4" transform="translate(-139.6 188.16) rotate(-45)" />
            <rect class="cls-3" x="195.87" y="453.42" width="8.45" height="8.45" transform="translate(-265 275.53) rotate(-45)" />
            <rect class="cls-3" x="420.93" y="274.88" width="8.45" height="8.45" transform="translate(-72.83 382.38) rotate(-45)" />
            <rect class="cls-3" x="460.57" y="250.82" width="8.45" height="8.45" transform="translate(-44.21 403.36) rotate(-45)" />
            <rect class="cls-3" x="395.43" y="425.93" width="8.45" height="8.45" transform="translate(-187.11 408.59) rotate(-45)" />
            <rect class="cls-3" x="287.49" y="373.13" width="8.45" height="8.45" transform="translate(-181.39 316.8) rotate(-45)" />
            <rect class="cls-3" x="282.01" y="472.13" width="8.45" height="8.45" transform="translate(-253 341.92) rotate(-45)" />
            <rect class="cls-3" x="211.76" y="469.69" width="8.45" height="8.45" transform="translate(-271.85 291.53) rotate(-45)" />
            <rect class="cls-3" x="210.07" y="421.01" width="8.45" height="8.45" transform="translate(-237.92 276.08) rotate(-45)" />
            <rect class="cls-3" x="272.2" y="421.01" width="8.45" height="8.45" transform="translate(-219.72 320.01) rotate(-45)" />
            <rect class="cls-3" x="15.34" y="272.89" width="18.4" height="18.4" transform="translate(-192.28 99.97) rotate(-45)" />
            <rect class="cls-3" x="435.38" y="256.64" width="5.53" height="5.53" transform="translate(-55.1 385.79) rotate(-45)" />
            <rect class="cls-3" x="361.56" y="275.41" width="5.53" height="5.53" transform="translate(-89.99 339.09) rotate(-45)" />
            <rect class="cls-3" x="419.35" y="337.71" width="5.53" height="5.53" transform="translate(-117.12 398.2) rotate(-45)" />
            <rect class="cls-3" x="341" y="301.49" width="5.53" height="5.53" transform="translate(-114.45 332.2) rotate(-45)" />
            <rect class="cls-3" x="363.59" y="393.16" width="5.53" height="5.53" transform="translate(-172.66 375.02) rotate(-45)" />
            <rect class="cls-3" x="298.24" y="459.66" width="5.53" height="5.53" transform="translate(-238.82 348.29) rotate(-45)" />
            <rect class="cls-3" x="171.26" y="475.1" width="5.53" height="5.53" transform="translate(-286.93 263.02) rotate(-45)" />
            <rect class="cls-3" x="42.78" y="217.82" width="5.53" height="5.53" transform="translate(-142.64 96.82) rotate(-45)" />
            <rect class="cls-3" x="176.17" y="328.63" width="5.53" height="5.53" transform="translate(-181.92 223.59) rotate(-45)" />
            <rect class="cls-3" x="70.08" y="272.23" width="5.53" height="5.53" transform="translate(-173.12 132.06) rotate(-45)" />
            <rect class="cls-3" x="100.14" y="290.26" width="5.53" height="5.53" transform="translate(-177.06 158.59) rotate(-45)" />
            <rect class="cls-3" x="75.66" y="362.05" width="5.53" height="5.53" transform="translate(-234.99 162.31) rotate(-45)" />
            <rect class="cls-3" x="142.02" y="236.17" width="5.53" height="5.53" transform="translate(-126.55 172.37) rotate(-45)" />
            <rect class="cls-3" x="99.9" y="201.05" width="5.53" height="5.53" transform="translate(-114.05 132.29) rotate(-45)" />
            <rect class="cls-3" x="41.98" y="331.03" width="5.53" height="5.53" transform="translate(-222.93 129.41) rotate(-45)" />
            <rect class="cls-3" x="266.33" y="308.22" width="14.02" height="14.02" transform="translate(-142.84 285.61) rotate(-45)" />
            <rect class="cls-3" x="141.87" y="379.63" width="14.02" height="14.02" transform="translate(-229.79 218.52) rotate(-45)" />
            <rect class="cls-3" x="121.5" y="333.69" width="14.02" height="14.02" transform="translate(-203.27 190.66) rotate(-45)" />
            <rect class="cls-3" x="52.42" y="329" width="8.45" height="8.45" transform="translate(-219.03 137.65) rotate(-45)" />
            <rect class="cls-3" x="126" y="429.84" width="8.45" height="8.45" transform="translate(-268.79 219.22) rotate(-45)" />
            <rect class="cls-3" x="210.07" y="388.39" width="8.45" height="8.45" transform="translate(-214.86 266.52) rotate(-45)" />
            <rect class="cls-3" x="454.61" y="375" width="8.45" height="8.45" transform="translate(-133.76 435.51) rotate(-45)" />
            <rect class="cls-3" x="246.77" y="353.4" width="8.45" height="8.45" transform="translate(-179.36 282.23) rotate(-45)" />
            <rect class="cls-3" x="313.88" y="356.88" width="8.45" height="8.45" transform="translate(-162.17 330.7) rotate(-45)" />
            <rect class="cls-3" x="147.49" y="439.76" width="8.45" height="8.45" transform="translate(-269.51 237.32) rotate(-45)" />
            <rect class="cls-3" x="313.02" y="292.24" width="18.4" height="18.4" transform="translate(-118.78 316.13) rotate(-45)" />
            <rect class="cls-3" x="382.97" y="254.95" width="18.4" height="18.4" transform="translate(-71.92 354.67) rotate(-45)" />
            <rect class="cls-3" x="331.29" y="412.92" width="18.4" height="18.4" transform="translate(-198.75 364.39) rotate(-45)" />
            <rect class="cls-3" x="243.32" y="500.87" width="18.4" height="18.4" transform="translate(-286.71 327.95) rotate(-45)" />
            <rect class="cls-3" x="470.24" y="273.06" width="18.4" height="18.4" transform="translate(-59.16 421.69) rotate(-45)" />
            <rect class="cls-3" x="183.82" y="367.5" width="18.4" height="18.4" transform="translate(-209.84 246.82) rotate(-45)" />
            <rect class="cls-3" x="358.91" y="453.94" width="8.45" height="8.45" transform="translate(-217.61 390.97) rotate(-45)" />
            <rect class="cls-3" x="348.58" y="330.04" width="14.02" height="14.02" transform="translate(-134.18 350.16) rotate(-45)" />
            <rect class="cls-3" x="99.88" y="263.61" width="14.02" height="14.02" transform="translate(-160.05 154.85) rotate(-45)" />
            <rect class="cls-3" x="78.59" y="415.11" width="14.02" height="14.02" transform="translate(-273.41 184.16) rotate(-45)" />
            <rect class="cls-3" x="120.13" y="236.93" width="4.02" height="4.02" transform="translate(-133.18 156.35) rotate(-45)" />
            <rect class="cls-3" x="166.9" y="297.47" width="4.02" height="4.02" transform="translate(-162.29 207.15) rotate(-45)" />
            <rect class="cls-3" x="51.23" y="276.09" width="4.02" height="4.02" transform="translate(-181.05 119.1) rotate(-45)" />
            <rect class="cls-3" x="64.17" y="344.88" width="4.02" height="4.02" transform="translate(-225.9 148.4) rotate(-45)" />
            <rect class="cls-3" x="235.2" y="473.09" width="4.02" height="4.02" transform="translate(-266.47 306.89) rotate(-45)" />
            <rect class="cls-3" x="157.25" y="466.06" width="4.02" height="4.02" transform="translate(-284.33 249.71) rotate(-45)" />
            <rect class="cls-3" x="239.65" y="423.9" width="4.02" height="4.02" transform="translate(-230.38 295.63) rotate(-45)" />
            <rect class="cls-3" x="254.38" y="441.63" width="4.02" height="4.02" transform="translate(-238.6 311.23) rotate(-45)" />
            <rect class="cls-3" x="140.89" y="411.51" width="4.02" height="4.02" transform="translate(-250.55 222.16) rotate(-45)" />
            <rect class="cls-3" x="96.2" y="396.04" width="4.02" height="4.02" transform="translate(-252.7 186.03) rotate(-45)" />
            <rect class="cls-3" x="120.55" y="444.4" width="4.02" height="4.02" transform="translate(-279.76 217.41) rotate(-45)" />
            <rect class="cls-3" x="110.34" y="405.93" width="4.02" height="4.02" transform="translate(-255.55 198.92) rotate(-45)" />
            <rect class="cls-3" x="377.22" y="375.09" width="4.02" height="4.02" transform="translate(-155.58 378.61) rotate(-45)" />
            <rect class="cls-3" x="155.48" y="132.75" width="18.4" height="18.4" transform="translate(-52.14 158.02) rotate(-45)" />
            <rect class="cls-3" x="437.3" y="208.18" width="3.5" height="3.5" transform="translate(-19.85 371.94) rotate(-45)" />
            <rect class="cls-3" x="439.77" y="176.73" width="3.5" height="3.5" transform="translate(3.11 364.48) rotate(-45)" />
            <rect class="cls-3" x="372.06" y="192.08" width="3.5" height="3.5" transform="translate(-27.57 321.09) rotate(-45)" />
            <rect class="cls-3" x="271.59" y="167.24" width="3.5" height="3.5" transform="translate(-39.43 242.78) rotate(-45)" />
            <rect class="cls-3" x="231.49" y="273.25" width="3.5" height="3.5" transform="translate(-126.14 245.47) rotate(-45)" />
            <rect class="cls-3" x="269.61" y="204.61" width="3.5" height="3.5" transform="translate(-66.44 252.32) rotate(-45)" />
            <rect class="cls-3" x="341.68" y="224.3" width="3.5" height="3.5" transform="translate(-59.25 309.05) rotate(-45)" />
            <rect class="cls-3" x="368.53" y="247.32" width="3.5" height="3.5" transform="translate(-67.67 334.77) rotate(-45)" />
            <rect class="cls-3" x="304.68" y="193.21" width="3.5" height="3.5" transform="translate(-48.11 273.78) rotate(-45)" />
            <rect class="cls-3" x="239.91" y="170.05" width="3.5" height="3.5" transform="translate(-50.7 221.2) rotate(-45)" />
            <rect class="cls-3" x="226.91" y="68.64" width="3.5" height="3.5" transform="translate(17.2 182.3) rotate(-45)" />
            <rect class="cls-3" x="192.3" y="92" width="3.5" height="3.5" transform="translate(-9.45 164.67) rotate(-45)" />
            <rect class="cls-3" x="133.41" y="168.95" width="3.5" height="3.5" transform="translate(-81.12 145.57) rotate(-45)" />
            <rect class="cls-3" x="68.63" y="164.1" width="3.5" height="3.5" transform="translate(-96.66 98.34) rotate(-45)" />
            <rect class="cls-3" x="57.62" y="194" width="3.5" height="3.5" transform="translate(-121.03 99.31) rotate(-45)" />
            <rect class="cls-3" x="372.06" y="152.35" width="3.5" height="3.5" transform="translate(0.52 309.46) rotate(-45)" />
            <rect class="cls-3" x="124.76" y="82.94" width="14.02" height="14.02" transform="translate(-25.01 119.52) rotate(-45)" />
            <rect class="cls-3" x="183.43" y="68.64" width="8.45" height="8.45" transform="translate(3.44 154.04) rotate(-45)" />
            <rect class="cls-3" x="346.36" y="96.09" width="8.45" height="8.45" transform="translate(31.75 277.28) rotate(-45)" />
            <rect class="cls-3" x="410.71" y="131.75" width="8.45" height="8.45" transform="translate(25.38 333.23) rotate(-45)" />
            <rect class="cls-3" x="420.93" y="169.01" width="8.45" height="8.45" transform="translate(2.03 351.37) rotate(-45)" />
            <rect class="cls-3" x="150.61" y="91.99" width="8.45" height="8.45" transform="translate(-22.69 137.67) rotate(-45)" />
            <rect class="cls-3" x="89.17" y="147.39" width="5.53" height="5.53" transform="translate(-79.25 108.99) rotate(-45)" />
            <rect class="cls-3" x="197.46" y="153.43" width="5.53" height="5.53" transform="translate(-51.8 187.33) rotate(-45)" />
            <rect class="cls-3" x="450.83" y="206.91" width="5.53" height="5.53" transform="translate(-15.41 382.15) rotate(-45)" />
            <rect class="cls-3" x="389.02" y="134.72" width="5.53" height="5.53" transform="translate(17.53 317.3) rotate(-45)" />
            <rect class="cls-3" x="294.91" y="96.5" width="5.53" height="5.53" transform="translate(17 239.56) rotate(-45)" />
            <rect class="cls-3" x="226.94" y="96.5" width="5.53" height="5.53" transform="translate(-2.91 191.5) rotate(-45)" />
            <rect class="cls-3" x="422.39" y="223.97" width="5.53" height="5.53" transform="translate(-35.8 367.04) rotate(-45)" />
            <rect class="cls-3" x="362.91" y="164.49" width="5.53" height="5.53" transform="translate(-11.17 307.56) rotate(-45)" />
            <rect class="cls-3" x="118.1" y="155.23" width="5.53" height="5.53" transform="translate(-76.32 131.74) rotate(-45)" />
            <rect class="cls-3" x="206.3" y="200.08" width="5.53" height="5.53" transform="translate(-82.2 207.24) rotate(-45)" />
            <rect class="cls-3" x="83.93" y="177.32" width="14.02" height="14.02" transform="translate(-103.7 118.29) rotate(-45)" />
            <rect class="cls-3" x="245.18" y="125.97" width="14.02" height="14.02" transform="translate(-20.17 217.27) rotate(-45)" />
            <rect class="cls-3" x="245.51" y="75.37" width="14.02" height="14.02" transform="translate(15.71 202.69) rotate(-45)" />
            <rect class="cls-3" x="281.44" y="84.8" width="8.45" height="8.45" transform="translate(20.72 228.07) rotate(-45)" />
            <rect class="cls-3" x="213.16" y="116.06" width="8.45" height="8.45" transform="translate(-21.38 188.94) rotate(-45)" />
            <rect class="cls-3" x="314.24" y="175.64" width="8.45" height="8.45" transform="translate(-33.91 277.87) rotate(-45)" />
            <rect class="cls-3" x="248.3" y="277.86" width="8.45" height="8.45" transform="translate(-125.5 261.18) rotate(-45)" />
            <rect class="cls-3" x="167.21" y="220.28" width="8.45" height="8.45" transform="translate(-108.54 186.98) rotate(-45)" />
            <rect class="cls-3" x="331.29" y="133.83" width="18.4" height="18.4" transform="translate(-1.41 282.65) rotate(-45)" />
            <rect class="cls-3" x="242.99" y="194.61" width="18.4" height="18.4" transform="translate(-70.25 238.02) rotate(-45)" />
            <rect class="cls-3" x="195.36" y="229.53" width="8.45" height="8.45" transform="translate(-106.83 209.59) rotate(-45)" />
            <rect class="cls-3" x="322.76" y="69.34" width="14.02" height="14.02" transform="translate(42.6 255.54) rotate(-45)" />
            <rect class="cls-3" x="127.47" y="206.31" width="14.02" height="14.02" transform="translate(-111.45 157.57) rotate(-45)" />
            <rect class="cls-3" x="219.18" y="235.19" width="14.02" height="14.02" transform="translate(-105.01 230.88) rotate(-45)" />
            <rect class="cls-3" x="179.84" y="122.06" width="4.02" height="4.02" transform="translate(-34.47 164.92) rotate(-45)" />
            <rect class="cls-3" x="155.32" y="197.08" width="4.02" height="4.02" transform="translate(-94.69 169.56) rotate(-45)" />
            <rect class="cls-3" x="211.3" y="159.35" width="4.02" height="4.02" transform="translate(-51.62 198.09) rotate(-45)" />
            <rect class="cls-3" x="121.57" y="135.45" width="4.02" height="4.02" transform="translate(-61.01 127.64) rotate(-45)" />
            <rect class="cls-3" x="284.71" y="264.5" width="3.5" height="3.5" transform="translate(-104.36 280.54) rotate(-45)" />
            <rect class="cls-1" x="315.86" y="229.9" width="8.45" height="8.45" transform="translate(-71.8 294.91) rotate(-45)" />
            <rect class="cls-1" x="447.8" y="226.79" width="3.5" height="3.5" transform="translate(-29.93 384.82) rotate(-45)" />
            <rect class="cls-1" x="413.19" y="187.12" width="3.5" height="3.5" transform="translate(-12.02 348.72) rotate(-45)" />
            <rect class="cls-1" x="430.07" y="195.77" width="3.5" height="3.5" transform="translate(-13.19 363.2) rotate(-45)" />
            <rect class="cls-1" x="436.4" y="160.13" width="3.5" height="3.5" transform="translate(13.87 357.23) rotate(-45)" />
            <rect class="cls-1" x="372.06" y="117.77" width="3.5" height="3.5" transform="translate(24.97 299.33) rotate(-45)" />
            <rect class="cls-1" x="286.76" y="70.03" width="3.5" height="3.5" transform="translate(33.75 225.03) rotate(-45)" />
            <rect class="cls-1" x="356.72" y="138.11" width="3.5" height="3.5" transform="translate(6.1 294.44) rotate(-45)" />
            <rect class="cls-1" x="325.55" y="128.76" width="3.5" height="3.5" transform="translate(3.58 269.66) rotate(-45)" />
            <rect class="cls-1" x="306.38" y="146.12" width="3.5" height="3.5" transform="translate(-14.31 261.19) rotate(-45)" />
            <rect class="cls-1" x="417.81" y="148.41" width="3.5" height="3.5" transform="translate(16.71 340.66) rotate(-45)" />
            <rect class="cls-1" x="409.01" y="242.23" width="3.5" height="3.5" transform="translate(-52.21 361.91) rotate(-45)" />
            <rect class="cls-1" x="454.6" y="267.35" width="3.5" height="3.5" transform="translate(-56.62 401.5) rotate(-45)" />
            <rect class="cls-1" x="458.57" y="339.73" width="3.5" height="3.5" transform="translate(-106.64 425.51) rotate(-45)" />
            <rect class="cls-1" x="401.37" y="338.73" width="3.5" height="3.5" transform="translate(-122.68 384.77) rotate(-45)" />
            <rect class="cls-1" x="337.48" y="449.3" width="3.5" height="3.5" transform="translate(-219.58 371.98) rotate(-45)" />
            <rect class="cls-1" x="448.31" y="290.21" width="3.5" height="3.5" transform="translate(-74.63 403.75) rotate(-45)" />
            <rect class="cls-1" x="358.66" y="299.69" width="3.5" height="3.5" transform="translate(-107.59 343.14) rotate(-45)" />
            <rect class="cls-1" x="233.01" y="226.79" width="3.5" height="3.5" transform="translate(-92.84 232.93) rotate(-45)" />
            <rect class="cls-1" x="329.73" y="214.92" width="3.5" height="3.5" transform="translate(-56.12 297.85) rotate(-45)" />
            <rect class="cls-1" x="339.83" y="173.25" width="3.5" height="3.5" transform="translate(-23.7 292.79) rotate(-45)" />
            <rect class="cls-1" x="202.29" y="217.39" width="3.5" height="3.5" transform="translate(-95.19 208.46) rotate(-45)" />
            <rect class="cls-1" x="124.28" y="119.85" width="3.5" height="3.5" transform="translate(-49.07 124.73) rotate(-45)" />
            <rect class="cls-1" x="181.04" y="83.94" width="3.5" height="3.5" transform="translate(-7.05 154.35) rotate(-45)" />
            <rect class="cls-1" x="96.34" y="164.1" width="3.5" height="3.5" transform="translate(-88.54 117.93) rotate(-45)" />
            <rect class="cls-1" x="113.52" y="251.89" width="3.5" height="3.5" transform="translate(-145.59 155.8) rotate(-45)" />
            <rect class="cls-1" x="97.63" y="284.63" width="3.5" height="3.5" transform="translate(-173.4 154.15) rotate(-45)" />
            <rect class="cls-1" x="121.46" y="180.91" width="3.5" height="3.5" transform="translate(-93.07 140.62) rotate(-45)" />
            <rect class="cls-1" x="59.77" y="317.32" width="3.5" height="3.5" transform="translate(-207.6 136.96) rotate(-45)" />
            <rect class="cls-1" x="107.03" y="393.42" width="3.5" height="3.5" transform="translate(-247.56 192.66) rotate(-45)" />
            <rect class="cls-1" x="129.01" y="449.3" width="3.5" height="3.5" transform="translate(-280.64 224.57) rotate(-45)" />
            <rect class="cls-1" x="80.89" y="400.38" width="3.5" height="3.5" transform="translate(-260.15 176.22) rotate(-45)" />
            <rect class="cls-1" x="253.24" y="461.84" width="3.5" height="3.5" transform="translate(-253.12 316.09) rotate(-45)" />
            <rect class="cls-1" x="305.17" y="428.45" width="3.5" height="3.5" transform="translate(-214.3 343.03) rotate(-45)" />
            <rect class="cls-1" x="271.59" y="437.22" width="3.5" height="3.5" transform="translate(-230.34 321.85) rotate(-45)" />
            <rect class="cls-1" x="182.88" y="388.48" width="3.5" height="3.5" transform="translate(-221.85 244.84) rotate(-45)" />
            <rect class="cls-1" x="128.05" y="407.93" width="3.5" height="3.5" transform="translate(-251.67 211.77) rotate(-45)" />
            <rect class="cls-1" x="149.6" y="461.84" width="3.5" height="3.5" transform="translate(-283.48 242.8) rotate(-45)" />
            <rect class="cls-1" x="228.15" y="357.92" width="3.5" height="3.5" transform="translate(-186.99 267.91) rotate(-45)" />
            <rect class="cls-1" x="263.61" y="351.36" width="3.5" height="3.5" transform="translate(-171.96 291.06) rotate(-45)" />
            <rect class="cls-1" x="305.36" y="366.89" width="3.5" height="3.5" transform="translate(-170.72 325.13) rotate(-45)" />
            <rect class="cls-1" x="271.03" y="478.2" width="3.5" height="3.5" transform="translate(-259.48 333.46) rotate(-45)" />
            <rect class="cls-1" x="320.47" y="403.88" width="3.5" height="3.5" transform="translate(-192.45 346.65) rotate(-45)" />
            <rect class="cls-1" x="298.25" y="407.27" width="3.5" height="3.5" transform="translate(-201.35 331.93) rotate(-45)" />
            <rect class="cls-1" x="284.11" y="459.37" width="3.5" height="3.5" transform="translate(-242.33 337.19) rotate(-45)" />
            <rect class="cls-1" x="240.9" y="485.63" width="3.5" height="3.5" transform="translate(-273.56 314.33) rotate(-45)" />
            <rect class="cls-1" x="267.12" y="491.98" width="3.5" height="3.5" transform="translate(-270.37 334.72) rotate(-45)" />
            <rect class="cls-1" x="340.64" y="348.49" width="3.5" height="3.5" transform="translate(-147.37 344.69) rotate(-45)" />
            <rect class="cls-1" x="243.32" y="44.91" width="18.4" height="18.4" transform="translate(35.7 194.41) rotate(-45)" />
            <rect class="cls-1" x="36.35" y="177.19" width="18.4" height="18.4" transform="translate(-118.46 86.8) rotate(-45)" />
            <rect class="cls-1" x="178.75" y="170.66" width="18.4" height="18.4" transform="translate(-72.13 185.58) rotate(-45)" />
            <rect class="cls-1" x="281.78" y="334.85" width="18.4" height="18.4" transform="translate(-158.05 306.52) rotate(-45)" />
            <rect class="cls-1" x="154.7" y="412.63" width="18.4" height="18.4" transform="translate(-250.28 239.44) rotate(-45)" />
            <rect class="cls-1" x="250.03" y="387.89" width="18.4" height="18.4" transform="translate(-204.86 299.61) rotate(-45)" />
            <rect class="cls-1" x="121.94" y="461.98" width="18.4" height="18.4" transform="translate(-294.76 230.73) rotate(-45)" />
            <rect class="cls-1" x="401.55" y="295.84" width="18.4" height="18.4" transform="translate(-95.39 379.79) rotate(-45)" />
            <rect class="cls-1" x="394.12" y="150.2" width="18.4" height="18.4" transform="translate(5.41 331.87) rotate(-45)" />
            <rect class="cls-1" x="76.4" y="307.18" width="18.4" height="18.4" transform="translate(-198.64 153.19) rotate(-45)" />
            <rect class="cls-1" x="364.61" y="465.96" width="18.4" height="18.4" transform="translate(-226.5 403.49) rotate(-45)" />
            <rect class="cls-1" x="88.34" y="128.61" width="8.45" height="8.45" transform="translate(-66.82 104.36) rotate(-45)" />
            <rect class="cls-1" x="107.92" y="132.66" width="5.53" height="5.53" transform="translate(-63.34 117.93) rotate(-45)" />
            <rect class="cls-1" x="266.86" y="100.08" width="5.53" height="5.53" transform="translate(6.25 220.78) rotate(-45)" />
            <rect class="cls-1" x="233.99" y="106.85" width="5.53" height="5.53" transform="translate(-8.16 199.52) rotate(-45)" />
            <rect class="cls-1" x="218.01" y="81.53" width="5.53" height="5.53" transform="translate(5.06 180.8) rotate(-45)" />
            <rect class="cls-1" x="139.68" y="106.85" width="5.53" height="5.53" transform="translate(-35.79 132.83) rotate(-45)" />
            <rect class="cls-1" x="337.72" y="260.14" width="14.02" height="14.02" transform="translate(-87.94 322.01) rotate(-45)" />
            <rect class="cls-1" x="334.71" y="370.09" width="14.02" height="14.02" transform="translate(-166.57 352.08) rotate(-45)" />
            <rect class="cls-1" x="314.88" y="433.69" width="14.02" height="14.02" transform="translate(-217.35 356.69) rotate(-45)" />
            <rect class="cls-1" x="369.38" y="408.54" width="14.02" height="14.02" transform="translate(-183.6 387.86) rotate(-45)" />
            <rect class="cls-1" x="219.18" y="444.03" width="14.02" height="14.02" transform="translate(-252.69 292.04) rotate(-45)" />
            <rect class="cls-1" x="199.43" y="489.78" width="14.02" height="14.02" transform="translate(-290.82 291.48) rotate(-45)" />
            <rect class="cls-1" x="438.52" y="240.1" width="14.02" height="14.02" transform="translate(-44.24 387.41) rotate(-45)" />
            <rect class="cls-1" x="267.2" y="139.18" width="5.53" height="5.53" transform="translate(-21.3 232.47) rotate(-45)" />
            <rect class="cls-1" x="249.75" y="174.14" width="5.53" height="5.53" transform="translate(-51.13 230.37) rotate(-45)" />
            <rect class="cls-1" x="384.13" y="233.99" width="5.53" height="5.53" transform="translate(-54.09 342.92) rotate(-45)" />
            <rect class="cls-1" x="428.56" y="368.35" width="5.53" height="5.53" transform="translate(-136.08 413.69) rotate(-45)" />
            <rect class="cls-1" x="293.89" y="273.68" width="5.53" height="5.53" transform="translate(-108.59 290.74) rotate(-45)" />
            <rect class="cls-1" x="381.56" y="287.06" width="5.53" height="5.53" transform="translate(-92.37 356.65) rotate(-45)" />
            <rect class="cls-1" x="243.68" y="333.05" width="5.53" height="5.53" transform="translate(-165.27 272.62) rotate(-45)" />
            <rect class="cls-1" x="230.48" y="372.79" width="5.53" height="5.53" transform="translate(-197.24 274.92) rotate(-45)" />
            <rect class="cls-1" x="350.86" y="437.27" width="5.53" height="5.53" transform="translate(-207.58 378.93) rotate(-45)" />
            <rect class="cls-1" x="378.02" y="362.05" width="5.53" height="5.53" transform="translate(-146.44 376.11) rotate(-45)" />
            <rect class="cls-1" x="200.41" y="134.94" width="14.02" height="14.02" transform="translate(-39.62 188.24) rotate(-45)" />
            <rect class="cls-1" x="451.81" y="177.92" width="14.02" height="14.02" transform="translate(3.62 378.6) rotate(-45)" />
            <rect class="cls-1" x="433.71" y="392.65" width="14.02" height="14.02" transform="translate(-153.52 428.69) rotate(-45)" />
            <rect class="cls-1" x="39.2" y="372.22" width="14.02" height="14.02" transform="translate(-254.62 143.75) rotate(-45)" />
            <rect class="cls-1" x="308.33" y="111.68" width="14.02" height="14.02" transform="translate(8.43 257.74) rotate(-45)" />
            <rect class="cls-1" x="179.14" y="275.23" width="14.02" height="14.02" transform="translate(-145.05 214.29) rotate(-45)" />
            <rect class="cls-1" x="137.98" y="290.44" width="14.02" height="14.02" transform="translate(-167.86 189.65) rotate(-45)" />
            <rect class="cls-1" x="105.78" y="363.33" width="14.02" height="14.02" transform="translate(-228.83 188.23) rotate(-45)" />
            <rect class="cls-1" x="264.93" y="244.16" width="14.02" height="14.02" transform="translate(-97.95 265.86) rotate(-45)" />
            <rect class="cls-1" x="172.11" y="101.48" width="8.45" height="8.45" transform="translate(-23.1 155.64) rotate(-45)" />
            <rect class="cls-1" x="385.19" y="186.77" width="8.45" height="8.45" transform="translate(-21 331.3) rotate(-45)" />
            <rect class="cls-1" x="314.24" y="211.14" width="8.45" height="8.45" transform="translate(-59.01 288.27) rotate(-45)" />
            <rect class="cls-1" x="214.24" y="173.25" width="8.45" height="8.45" transform="translate(-61.51 206.46) rotate(-45)" />
            <rect class="cls-1" x="134.31" y="135.37" width="8.45" height="8.45" transform="translate(-58.14 138.84) rotate(-45)" />
            <rect class="cls-1" x="124.29" y="386" width="8.45" height="8.45" transform="translate(-238.29 205.16) rotate(-45)" />
            <rect class="cls-1" x="169.81" y="313.34" width="8.45" height="8.45" transform="translate(-173.58 216.07) rotate(-45)" />
            <rect class="cls-1" x="234.76" y="299.77" width="8.45" height="8.45" transform="translate(-144.96 258.03) rotate(-45)" />
            <rect class="cls-1" x="226.63" y="211.14" width="8.45" height="8.45" transform="translate(-84.67 226.32) rotate(-45)" />
            <rect class="cls-1" x="450.42" y="326.1" width="8.45" height="8.45" transform="translate(-100.41 418.23) rotate(-45)" />
            <rect class="cls-1" x="289.65" y="156.3" width="8.45" height="8.45" transform="translate(-27.44 254.82) rotate(-45)" />
            <rect class="cls-1" x="314.62" y="486.4" width="8.45" height="8.45" transform="translate(-253.54 369.15) rotate(-45)" />
            <rect class="cls-1" x="408.37" y="401.41" width="8.45" height="8.45" transform="translate(-165.98 410.56) rotate(-45)" />
            <rect class="cls-1" x="325.54" y="463.41" width="8.45" height="8.45" transform="translate(-234.08 370.15) rotate(-45)" />
            <rect class="cls-1" x="143.32" y="177.49" width="8.45" height="8.45" transform="translate(-85.28 157.55) rotate(-45)" />
            <rect class="cls-1" x="85.59" y="212.44" width="8.45" height="8.45" transform="translate(-126.9 126.97) rotate(-45)" />
            <rect class="cls-1" x="83.1" y="264.87" width="8.45" height="8.45" transform="translate(-164.71 140.56) rotate(-45)" />
            <rect class="cls-1" x="198.54" y="333.32" width="8.45" height="8.45" transform="translate(-179.29 242.24) rotate(-45)" />
            <rect class="cls-1" x="60.98" y="300.7" width="8.45" height="8.45" transform="translate(-196.52 135.41) rotate(-45)" />
            <rect class="cls-1" x="153.11" y="350.91" width="8.45" height="8.45" transform="translate(-205.03 215.27) rotate(-45)" />
            <rect class="cls-1" x="181.19" y="438.74" width="8.45" height="8.45" transform="translate(-258.91 260.85) rotate(-45)" />
            <rect class="cls-1" x="41.66" y="256.37" width="8.45" height="8.45" transform="translate(-170.83 108.77) rotate(-45)" />
            <rect class="cls-1" x="314.23" y="82.94" width="4.02" height="4.02" transform="translate(32.56 248.5) rotate(-45)" />
            <rect class="cls-1" x="206.31" y="409.01" width="4.02" height="4.02" transform="translate(-229.62 267.69) rotate(-45)" />
            <rect class="cls-1" x="138.21" y="365.48" width="4.02" height="4.02" transform="translate(-218.78 206.79) rotate(-45)" />
            <rect class="cls-1" x="437.04" y="321.53" width="4.02" height="4.02" transform="translate(-100.18 405.22) rotate(-45)" />
            <rect class="cls-1" x="380.23" y="320.01" width="4.02" height="4.02" transform="translate(-115.75 364.6) rotate(-45)" />
            <rect class="cls-1" x="95.51" y="353.06" width="4.02" height="4.02" transform="translate(-222.51 172.95) rotate(-45)" />
            <rect class="cls-1" x="51.23" y="347.72" width="4.02" height="4.02" transform="translate(-231.7 140.08) rotate(-45)" />
            <rect class="cls-1" x="73.28" y="331.21" width="4.02" height="4.02" transform="translate(-213.57 150.83) rotate(-45)" />
            <rect class="cls-1" x="44.2" y="314.37" width="4.02" height="4.02" transform="translate(-210.18 125.34) rotate(-45)" />
            <rect class="cls-1" x="292.41" y="109.42" width="4.02" height="4.02" transform="translate(7.44 240.82) rotate(-45)" />
            <rect class="cls-1" x="206.07" y="82.29" width="4.02" height="4.02" transform="translate(1.34 171.82) rotate(-45)" />
            <rect class="cls-1" x="250.51" y="244.9" width="4.02" height="4.02" transform="translate(-100.63 250.88) rotate(-45)" />
            <rect class="cls-1" x="275.52" y="192.95" width="4.02" height="4.02" transform="translate(-56.57 253.34) rotate(-45)" />
            <rect class="cls-1" x="295.02" y="209.07" width="4.02" height="4.02" transform="translate(-62.25 271.86) rotate(-45)" />
            <rect class="cls-1" x="238.28" y="242.05" width="4.02" height="4.02" transform="translate(-102.2 241.4) rotate(-45)" />
            <rect class="cls-1" x="81" y="196.21" width="4.02" height="4.02" transform="translate(-115.85 116.75) rotate(-45)" />
            <rect class="cls-1" x="68" y="200.69" width="4.02" height="4.02" transform="translate(-122.83 108.87) rotate(-45)" />
            <rect class="cls-1" x="234.75" y="287.82" width="4.02" height="4.02" transform="translate(-135.6 252.3) rotate(-45)" />
            <rect class="cls-1" x="68" y="385.49" width="4.02" height="4.02" transform="translate(-253.5 163) rotate(-45)" />
            <rect class="cls-1" x="106.77" y="226.88" width="4.02" height="4.02" transform="translate(-129.99 143.96) rotate(-45)" />
            <rect class="cls-1" x="108.9" y="305.77" width="4.02" height="4.02" transform="translate(-185.15 168.57) rotate(-45)" />
            <rect class="cls-1" x="58.54" y="233.58" width="4.02" height="4.02" transform="translate(-148.85 111.82) rotate(-45)" />
            <rect class="cls-1" x="335.38" y="191.21" width="14.02" height="14.02" transform="translate(-39.88 300.17) rotate(-45)" />
            <rect class="cls-1" x="366.8" y="82.02" width="14.02" height="14.02" transform="translate(46.54 290.4) rotate(-45)" />
        </g>
    </g>
</svg>