<svg xmlns="http://www.w3.org/2000/svg" viewBox="0 0 297.92 326.4"><defs><style>.cls-1{fill:#b1b1b1;stroke:#d1d3d4;stroke-miterlimit:10;}.cls-2{fill:#22295c;}.cls-3{fill:#c3e9fb;}</style></defs><title>Ресурс 3</title><g id="Слой_2" data-name="Слой 2"><g id="Layer_1" data-name="Layer 1"><line class="cls-1" x1="149.68" y1="12.28" x2="193.91" y2="56.51"/><line class="cls-1" x1="59.72" y1="12.87" x2="284.9" y2="228.04"/><line class="cls-1" x1="14.38" y1="99.34" x2="239.56" y2="314.52"/><line class="cls-1" x1="241.41" y1="8.72" x2="12.6" y2="226.86"/><line class="cls-1" x1="242" y1="140.31" x2="55.28" y2="318.33"/><line class="cls-1" x1="12.75" y1="55.55" x2="149.38" y2="185.37"/><line class="cls-1" x1="56.84" y1="227.82" x2="285.79" y2="227.82"/><line class="cls-1" x1="285.87" y1="141.8" x2="149.23" y2="271.61"/><line class="cls-1" x1="16.9" y1="225.23" x2="106.7" y2="315.03"/><line class="cls-1" x1="193.91" y1="56.51" x2="193.91" y2="228.79"/><rect class="cls-2" x="49.12" y="175.27" width="18.71" height="18.71" transform="translate(-113.42 95.42) rotate(-45)"/><rect class="cls-2" x="49.12" y="3.88" width="18.71" height="18.71" transform="translate(7.77 45.22) rotate(-45)"/><rect class="cls-2" x="139.6" y="3.88" width="18.71" height="18.71" transform="translate(34.27 109.2) rotate(-45)"/><rect class="cls-2" x="230.08" y="3.88" width="18.71" height="18.71" transform="translate(60.77 173.19) rotate(-45)"/><rect class="cls-2" x="94.36" y="46.72" width="18.71" height="18.71" transform="translate(-9.28 89.76) rotate(-45)"/><rect class="cls-2" x="139.6" y="46.72" width="18.71" height="18.71" transform="translate(3.97 121.75) rotate(-45)"/><rect class="cls-2" x="49.12" y="89.57" width="18.71" height="18.71" transform="translate(-52.83 70.32) rotate(-45)"/><rect class="cls-2" x="139.6" y="89.57" width="18.71" height="18.71" transform="translate(-26.32 134.3) rotate(-45)"/><rect class="cls-2" x="184.84" y="89.57" width="18.71" height="18.71" transform="translate(-13.07 166.3) rotate(-45)"/><rect class="cls-2" x="94.36" y="132.42" width="18.71" height="18.71" transform="translate(-69.87 114.86) rotate(-45)"/><rect class="cls-2" x="230.08" y="132.42" width="18.71" height="18.71" transform="translate(-30.12 210.84) rotate(-45)"/><rect class="cls-2" x="184.84" y="175.27" width="18.71" height="18.71" transform="translate(-73.67 191.39) rotate(-45)"/><rect class="cls-2" x="94.36" y="218.11" width="18.71" height="18.71" transform="translate(-130.47 139.96) rotate(-45)"/><rect class="cls-2" x="184.84" y="218.11" width="18.71" height="18.71" transform="translate(-103.97 203.94) rotate(-45)"/><rect class="cls-2" x="49.12" y="260.96" width="18.71" height="18.71" transform="translate(-174.02 120.52) rotate(-45)"/><rect class="cls-2" x="139.6" y="260.96" width="18.71" height="18.71" transform="translate(-147.52 184.5) rotate(-45)"/><rect class="cls-2" x="230.08" y="260.96" width="18.71" height="18.71" transform="translate(-121.01 248.48) rotate(-45)"/><rect class="cls-2" x="275.33" y="218.11" width="18.71" height="18.71" transform="translate(-77.46 267.93) rotate(-45)"/><rect class="cls-2" x="3.88" y="46.72" width="18.71" height="18.71" transform="translate(-35.78 25.78) rotate(-45)"/><rect class="cls-2" x="3.88" y="89.57" width="18.71" height="18.71" transform="translate(-66.08 38.33) rotate(-45)"/><rect class="cls-2" x="3.88" y="132.42" width="18.71" height="18.71" transform="translate(-96.37 50.88) rotate(-45)"/><rect class="cls-3" x="3.88" y="175.27" width="18.71" height="18.71" transform="translate(-126.67 63.43) rotate(-45)"/><rect class="cls-2" x="3.88" y="218.11" width="18.71" height="18.71" transform="translate(-156.97 75.98) rotate(-45)"/><rect class="cls-2" x="3.88" y="260.96" width="18.71" height="18.71" transform="translate(-187.27 88.53) rotate(-45)"/><rect class="cls-2" x="49.12" y="303.81" width="18.71" height="18.71" transform="translate(-204.31 133.07) rotate(-45)"/><rect class="cls-2" x="94.36" y="303.81" width="18.71" height="18.71" transform="translate(-191.06 165.06) rotate(-45)"/><rect class="cls-3" x="94.36" y="3.88" width="18.71" height="18.71" transform="translate(21.02 77.21) rotate(-45)"/><rect class="cls-3" x="184.84" y="3.88" width="18.71" height="18.71" transform="translate(47.52 141.2) rotate(-45)"/><rect class="cls-3" x="49.12" y="46.72" width="18.71" height="18.71" transform="translate(-22.53 57.77) rotate(-45)"/><rect class="cls-3" x="184.84" y="46.72" width="18.71" height="18.71" transform="translate(17.23 153.75) rotate(-45)"/><rect class="cls-3" x="94.36" y="89.57" width="18.71" height="18.71" transform="translate(-39.57 102.31) rotate(-45)"/><rect class="cls-3" x="49.12" y="132.42" width="18.71" height="18.71" transform="translate(-83.12 82.87) rotate(-45)"/><rect class="cls-3" x="184.84" y="132.42" width="18.71" height="18.71" transform="translate(-43.37 178.84) rotate(-45)"/><rect class="cls-3" x="94.36" y="175.27" width="18.71" height="18.71" transform="translate(-100.17 127.41) rotate(-45)"/><rect class="cls-3" x="139.6" y="175.27" width="18.71" height="18.71" transform="translate(-86.92 159.4) rotate(-45)"/><rect class="cls-3" x="230.08" y="175.27" width="18.71" height="18.71" transform="translate(-60.42 223.39) rotate(-45)"/><rect class="cls-3" x="49.12" y="218.11" width="18.71" height="18.71" transform="translate(-143.72 107.97) rotate(-45)"/><rect class="cls-3" x="139.6" y="218.11" width="18.71" height="18.71" transform="translate(-117.22 171.95) rotate(-45)"/><rect class="cls-3" x="230.08" y="218.11" width="18.71" height="18.71" transform="translate(-90.72 235.94) rotate(-45)"/><rect class="cls-3" x="94.36" y="260.96" width="18.71" height="18.71" transform="translate(-160.77 152.51) rotate(-45)"/><rect class="cls-3" x="184.84" y="260.96" width="18.71" height="18.71" transform="translate(-134.26 216.49) rotate(-45)"/><rect class="cls-3" x="275.33" y="132.42" width="18.71" height="18.71" transform="translate(-16.87 242.83) rotate(-45)"/><rect class="cls-3" x="275.33" y="260.96" width="18.71" height="18.71" transform="translate(-107.76 280.48) rotate(-45)"/><rect class="cls-3" x="230.08" y="303.81" width="18.71" height="18.71" transform="translate(-151.31 261.03) rotate(-45)"/></g></g></svg>